<svg id="mermaid-1596813184884" width="1629.015625" xmlns="http://www.w3.org/2000/svg" height="2063.15625" viewBox="-55 -20 1629.015625 2063.15625"><style>#mermaid-1596813184884 .label{font-family:'trebuchet ms', verdana, arial;font-family:var(--mermaid-font-family);fill:#333;color:#333}#mermaid-1596813184884 .label text{fill:#333}#mermaid-1596813184884 .node rect,#mermaid-1596813184884 .node circle,#mermaid-1596813184884 .node ellipse,#mermaid-1596813184884 .node polygon,#mermaid-1596813184884 .node path{fill:#ECECFF;stroke:#9370db;stroke-width:1px}#mermaid-1596813184884 .node .label{text-align:center;fill:#333}#mermaid-1596813184884 .node.clickable{cursor:pointer}#mermaid-1596813184884 .arrowheadPath{fill:#333}#mermaid-1596813184884 .edgePath .path{stroke:#333;stroke-width:1.5px}#mermaid-1596813184884 .flowchart-link{stroke:#333;fill:none}#mermaid-1596813184884 .edgeLabel{background-color:#e8e8e8;text-align:center}#mermaid-1596813184884 .edgeLabel rect{opacity:0.9}#mermaid-1596813184884 .edgeLabel span{color:#333}#mermaid-1596813184884 .cluster rect{fill:#ffffde;stroke:#aa3;stroke-width:1px}#mermaid-1596813184884 .cluster text{fill:#333}#mermaid-1596813184884 div.mermaidTooltip{position:absolute;text-align:center;max-width:200px;padding:2px;font-family:'trebuchet ms', verdana, arial;font-family:var(--mermaid-font-family);font-size:12px;background:#ffffde;border:1px solid #aa3;border-radius:2px;pointer-events:none;z-index:100}#mermaid-1596813184884 .actor{stroke:#ccf;fill:#ECECFF}#mermaid-1596813184884 text.actor&gt;tspan{fill:#000;stroke:none}#mermaid-1596813184884 .actor-line{stroke:grey}#mermaid-1596813184884 .messageLine0{stroke-width:1.5;stroke-dasharray:none;stroke:#333}#mermaid-1596813184884 .messageLine1{stroke-width:1.5;stroke-dasharray:2, 2;stroke:#333}#mermaid-1596813184884 #arrowhead path{fill:#333;stroke:#333}#mermaid-1596813184884 .sequenceNumber{fill:#fff}#mermaid-1596813184884 #sequencenumber{fill:#333}#mermaid-1596813184884 #crosshead path{fill:#333;stroke:#333}#mermaid-1596813184884 .messageText{fill:#333;stroke:#333}#mermaid-1596813184884 .labelBox{stroke:#ccf;fill:#ECECFF}#mermaid-1596813184884 .labelText,#mermaid-1596813184884 .labelText&gt;tspan{fill:#000;stroke:none}#mermaid-1596813184884 .loopText,#mermaid-1596813184884 .loopText&gt;tspan{fill:#000;stroke:none}#mermaid-1596813184884 .loopLine{stroke-width:2px;stroke-dasharray:2, 2;stroke:#ccf;fill:#ccf}#mermaid-1596813184884 .note{stroke:#aa3;fill:#fff5ad}#mermaid-1596813184884 .noteText,#mermaid-1596813184884 .noteText&gt;tspan{fill:#000;stroke:none}#mermaid-1596813184884 .activation0{fill:#f4f4f4;stroke:#666}#mermaid-1596813184884 .activation1{fill:#f4f4f4;stroke:#666}#mermaid-1596813184884 .activation2{fill:#f4f4f4;stroke:#666}#mermaid-1596813184884 .mermaid-main-font{font-family:"trebuchet ms", verdana, arial;font-family:var(--mermaid-font-family)}#mermaid-1596813184884 .section{stroke:none;opacity:0.2}#mermaid-1596813184884 .section0{fill:rgba(102,102,255,0.49)}#mermaid-1596813184884 .section2{fill:#fff400}#mermaid-1596813184884 .section1,#mermaid-1596813184884 .section3{fill:#fff;opacity:0.2}#mermaid-1596813184884 .sectionTitle0{fill:#333}#mermaid-1596813184884 .sectionTitle1{fill:#333}#mermaid-1596813184884 .sectionTitle2{fill:#333}#mermaid-1596813184884 .sectionTitle3{fill:#333}#mermaid-1596813184884 .sectionTitle{text-anchor:start;font-size:11px;text-height:14px;font-family:'trebuchet ms', verdana, arial;font-family:var(--mermaid-font-family)}#mermaid-1596813184884 .grid .tick{stroke:#d3d3d3;opacity:0.8;shape-rendering:crispEdges}#mermaid-1596813184884 .grid .tick text{font-family:'trebuchet ms', verdana, arial;font-family:var(--mermaid-font-family)}#mermaid-1596813184884 .grid path{stroke-width:0}#mermaid-1596813184884 .today{fill:none;stroke:red;stroke-width:2px}#mermaid-1596813184884 .task{stroke-width:2}#mermaid-1596813184884 .taskText{text-anchor:middle;font-family:'trebuchet ms', verdana, arial;font-family:var(--mermaid-font-family)}#mermaid-1596813184884 .taskText:not([font-size]){font-size:11px}#mermaid-1596813184884 .taskTextOutsideRight{fill:#000;text-anchor:start;font-size:11px;font-family:'trebuchet ms', verdana, arial;font-family:var(--mermaid-font-family)}#mermaid-1596813184884 .taskTextOutsideLeft{fill:#000;text-anchor:end;font-size:11px}#mermaid-1596813184884 .task.clickable{cursor:pointer}#mermaid-1596813184884 .taskText.clickable{cursor:pointer;fill:#003163 !important;font-weight:bold}#mermaid-1596813184884 .taskTextOutsideLeft.clickable{cursor:pointer;fill:#003163 !important;font-weight:bold}#mermaid-1596813184884 .taskTextOutsideRight.clickable{cursor:pointer;fill:#003163 !important;font-weight:bold}#mermaid-1596813184884 .taskText0,#mermaid-1596813184884 .taskText1,#mermaid-1596813184884 .taskText2,#mermaid-1596813184884 .taskText3{fill:#fff}#mermaid-1596813184884 .task0,#mermaid-1596813184884 .task1,#mermaid-1596813184884 .task2,#mermaid-1596813184884 .task3{fill:#8a90dd;stroke:#534fbc}#mermaid-1596813184884 .taskTextOutside0,#mermaid-1596813184884 .taskTextOutside2{fill:#000}#mermaid-1596813184884 .taskTextOutside1,#mermaid-1596813184884 .taskTextOutside3{fill:#000}#mermaid-1596813184884 .active0,#mermaid-1596813184884 .active1,#mermaid-1596813184884 .active2,#mermaid-1596813184884 .active3{fill:#bfc7ff;stroke:#534fbc}#mermaid-1596813184884 .activeText0,#mermaid-1596813184884 .activeText1,#mermaid-1596813184884 .activeText2,#mermaid-1596813184884 .activeText3{fill:#000 !important}#mermaid-1596813184884 .done0,#mermaid-1596813184884 .done1,#mermaid-1596813184884 .done2,#mermaid-1596813184884 .done3{stroke:grey;fill:#d3d3d3;stroke-width:2}#mermaid-1596813184884 .doneText0,#mermaid-1596813184884 .doneText1,#mermaid-1596813184884 .doneText2,#mermaid-1596813184884 .doneText3{fill:#000 !important}#mermaid-1596813184884 .crit0,#mermaid-1596813184884 .crit1,#mermaid-1596813184884 .crit2,#mermaid-1596813184884 .crit3{stroke:#f88;fill:red;stroke-width:2}#mermaid-1596813184884 .activeCrit0,#mermaid-1596813184884 .activeCrit1,#mermaid-1596813184884 .activeCrit2,#mermaid-1596813184884 .activeCrit3{stroke:#f88;fill:#bfc7ff;stroke-width:2}#mermaid-1596813184884 .doneCrit0,#mermaid-1596813184884 .doneCrit1,#mermaid-1596813184884 .doneCrit2,#mermaid-1596813184884 .doneCrit3{stroke:#f88;fill:#d3d3d3;stroke-width:2;cursor:pointer;shape-rendering:crispEdges}#mermaid-1596813184884 .milestone{transform:rotate(45deg) scale(0.8, 0.8)}#mermaid-1596813184884 .milestoneText{font-style:italic}#mermaid-1596813184884 .doneCritText0,#mermaid-1596813184884 .doneCritText1,#mermaid-1596813184884 .doneCritText2,#mermaid-1596813184884 .doneCritText3{fill:#000 !important}#mermaid-1596813184884 .activeCritText0,#mermaid-1596813184884 .activeCritText1,#mermaid-1596813184884 .activeCritText2,#mermaid-1596813184884 .activeCritText3{fill:#000 !important}#mermaid-1596813184884 .titleText{text-anchor:middle;font-size:18px;fill:#000;font-family:'trebuchet ms', verdana, arial;font-family:var(--mermaid-font-family)}#mermaid-1596813184884 g.classGroup text{fill:#9370db;stroke:none;font-family:'trebuchet ms', verdana, arial;font-family:var(--mermaid-font-family);font-size:10px}#mermaid-1596813184884 g.classGroup text .title{font-weight:bolder}#mermaid-1596813184884 g.clickable{cursor:pointer}#mermaid-1596813184884 g.classGroup rect{fill:#ECECFF;stroke:#9370db}#mermaid-1596813184884 g.classGroup line{stroke:#9370db;stroke-width:1}#mermaid-1596813184884 .classLabel .box{stroke:none;stroke-width:0;fill:#ECECFF;opacity:0.5}#mermaid-1596813184884 .classLabel .label{fill:#9370db;font-size:10px}#mermaid-1596813184884 .relation{stroke:#9370db;stroke-width:1;fill:none}#mermaid-1596813184884 .dashed-line{stroke-dasharray:3}#mermaid-1596813184884 #compositionStart{fill:#9370db;stroke:#9370db;stroke-width:1}#mermaid-1596813184884 #compositionEnd{fill:#9370db;stroke:#9370db;stroke-width:1}#mermaid-1596813184884 #aggregationStart{fill:#ECECFF;stroke:#9370db;stroke-width:1}#mermaid-1596813184884 #aggregationEnd{fill:#ECECFF;stroke:#9370db;stroke-width:1}#mermaid-1596813184884 #dependencyStart{fill:#9370db;stroke:#9370db;stroke-width:1}#mermaid-1596813184884 #dependencyEnd{fill:#9370db;stroke:#9370db;stroke-width:1}#mermaid-1596813184884 #extensionStart{fill:#9370db;stroke:#9370db;stroke-width:1}#mermaid-1596813184884 #extensionEnd{fill:#9370db;stroke:#9370db;stroke-width:1}#mermaid-1596813184884 .commit-id,#mermaid-1596813184884 .commit-msg,#mermaid-1596813184884 .branch-label{fill:lightgrey;color:lightgrey;font-family:'trebuchet ms', verdana, arial;font-family:var(--mermaid-font-family)}#mermaid-1596813184884 .pieTitleText{text-anchor:middle;font-size:25px;fill:#000;font-family:'trebuchet ms', verdana, arial;font-family:var(--mermaid-font-family)}#mermaid-1596813184884 .slice{font-family:'trebuchet ms', verdana, arial;font-family:var(--mermaid-font-family)}#mermaid-1596813184884 g.stateGroup text{fill:#9370db;stroke:none;font-size:10px;font-family:'trebuchet ms', verdana, arial;font-family:var(--mermaid-font-family)}#mermaid-1596813184884 g.stateGroup text{fill:#9370db;fill:#333;stroke:none;font-size:10px}#mermaid-1596813184884 g.statediagram-cluster .cluster-label text{fill:#333}#mermaid-1596813184884 g.stateGroup .state-title{font-weight:bolder;fill:#000}#mermaid-1596813184884 g.stateGroup rect{fill:#ECECFF;stroke:#9370db}#mermaid-1596813184884 g.stateGroup line{stroke:#9370db;stroke-width:1}#mermaid-1596813184884 .transition{stroke:#9370db;stroke-width:1;fill:none}#mermaid-1596813184884 .stateGroup .composit{fill:white;border-bottom:1px}#mermaid-1596813184884 .stateGroup .alt-composit{fill:#e0e0e0;border-bottom:1px}#mermaid-1596813184884 .state-note{stroke:#aa3;fill:#fff5ad}#mermaid-1596813184884 .state-note text{fill:black;stroke:none;font-size:10px}#mermaid-1596813184884 .stateLabel .box{stroke:none;stroke-width:0;fill:#ECECFF;opacity:0.7}#mermaid-1596813184884 .edgeLabel text{fill:#333}#mermaid-1596813184884 .stateLabel text{fill:#000;font-size:10px;font-weight:bold;font-family:'trebuchet ms', verdana, arial;font-family:var(--mermaid-font-family)}#mermaid-1596813184884 .node circle.state-start{fill:black;stroke:black}#mermaid-1596813184884 .node circle.state-end{fill:black;stroke:white;stroke-width:1.5}#mermaid-1596813184884 #statediagram-barbEnd{fill:#9370db}#mermaid-1596813184884 .statediagram-cluster rect{fill:#ECECFF;stroke:#9370db;stroke-width:1px}#mermaid-1596813184884 .statediagram-cluster rect.outer{rx:5px;ry:5px}#mermaid-1596813184884 .statediagram-state .divider{stroke:#9370db}#mermaid-1596813184884 .statediagram-state .title-state{rx:5px;ry:5px}#mermaid-1596813184884 .statediagram-cluster.statediagram-cluster .inner{fill:white}#mermaid-1596813184884 .statediagram-cluster.statediagram-cluster-alt .inner{fill:#e0e0e0}#mermaid-1596813184884 .statediagram-cluster .inner{rx:0;ry:0}#mermaid-1596813184884 .statediagram-state rect.basic{rx:5px;ry:5px}#mermaid-1596813184884 .statediagram-state rect.divider{stroke-dasharray:10,10;fill:#efefef}#mermaid-1596813184884 .note-edge{stroke-dasharray:5}#mermaid-1596813184884 .statediagram-note rect{fill:#fff5ad;stroke:#aa3;stroke-width:1px;rx:0;ry:0}:root{--mermaid-font-family: '"trebuchet ms", verdana, arial';--mermaid-font-family: "Comic Sans MS", "Comic Sans", cursive}#mermaid-1596813184884 .error-icon{fill:#522}#mermaid-1596813184884 .error-text{fill:#522;stroke:#522}#mermaid-1596813184884 .edge-thickness-normal{stroke-width:2px}#mermaid-1596813184884 .edge-thickness-thick{stroke-width:3.5px}#mermaid-1596813184884 .edge-pattern-solid{stroke-dasharray:0}#mermaid-1596813184884 .edge-pattern-dashed{stroke-dasharray:3}#mermaid-1596813184884 .edge-pattern-dotted{stroke-dasharray:2}#mermaid-1596813184884 .marker{fill:#333}#mermaid-1596813184884 .marker.cross{stroke:#333}

:root { --mermaid-font-family: "trebuchet ms", verdana, arial;}</style><style>#mermaid-1596813184884 {
    color: rgb(0, 0, 0);
    font: 16px "trebuchet ms", verdana, arial;
  }</style><g></g><defs><marker id="extensionStart" class="extension" refX="0" refY="7" markerWidth="190" markerHeight="240" orient="auto"><path d="M 1,7 L18,13 V 1 Z"></path></marker></defs><defs><marker id="extensionEnd" refX="19" refY="7" markerWidth="20" markerHeight="28" orient="auto"><path d="M 1,1 V 13 L18,7 Z"></path></marker></defs><defs><marker id="compositionStart" class="extension" refX="0" refY="7" markerWidth="190" markerHeight="240" orient="auto"><path d="M 18,7 L9,13 L1,7 L9,1 Z"></path></marker></defs><defs><marker id="compositionEnd" refX="19" refY="7" markerWidth="20" markerHeight="28" orient="auto"><path d="M 18,7 L9,13 L1,7 L9,1 Z"></path></marker></defs><defs><marker id="aggregationStart" class="extension" refX="0" refY="7" markerWidth="190" markerHeight="240" orient="auto"><path d="M 18,7 L9,13 L1,7 L9,1 Z"></path></marker></defs><defs><marker id="aggregationEnd" refX="19" refY="7" markerWidth="20" markerHeight="28" orient="auto"><path d="M 18,7 L9,13 L1,7 L9,1 Z"></path></marker></defs><defs><marker id="dependencyStart" class="extension" refX="0" refY="7" markerWidth="190" markerHeight="240" orient="auto"><path d="M 5,7 L9,13 L1,7 L9,1 Z"></path></marker></defs><defs><marker id="dependencyEnd" refX="19" refY="7" markerWidth="20" markerHeight="28" orient="auto"><path d="M 18,7 L9,13 L14,7 L9,1 Z"></path></marker></defs><g id="classid-Company-0" class="classGroup " transform="translate(925.19140625,141.0625 )"><rect x="0" y="0" width="255.203125" height="568.21875"></rect><text y="15" x="0"><tspan class="title" x="106.21875">Company</tspan></text><line x1="0" y1="21.0625" y2="21.0625" x2="255.203125"></line><text x="5" y="31.0625" fill="white" class="classText"><tspan x="5">static LONG_TAIL_LOGGING_TAG</tspan><tspan x="5" dy="10">static POSSIBLE_ACTIONS</tspan><tspan x="5" dy="10">static SELF_REPORTED_MAU_RANGES</tspan><tspan x="5" dy="10">static DEFAULT_TIME_ZONE</tspan><tspan x="5" dy="10">static DEFAULT_ESP</tspan><tspan x="5" dy="10">actions &lt;Array&gt;</tspan><tspan x="5" dy="10">contact_email &lt;String&gt;</tspan><tspan x="5" dy="10">ep</tspan><tspan x="5" dy="10">sgk</tspan><tspan x="5" dy="10">self_reported_app_name &lt;String&gt;</tspan><tspan x="5" dy="10">email_campaign_summaries &lt;Boolean&gt;</tspan><tspan x="5" dy="10">name &lt;String&gt;</tspan><tspan x="5" dy="10">phone &lt;String&gt;</tspan><tspan x="5" dy="10">availability_state &lt;Integer&gt;</tspan><tspan x="5" dy="10">hipaa_compliant &lt;Boolean&gt;</tspan><tspan x="5" dy="10">is_demo_company &lt;Boolean&gt;</tspan><tspan x="5" dy="10">data_point_policy &lt;Integer&gt;</tspan><tspan x="5" dy="10">account_status &lt;Integer&gt;</tspan><tspan x="5" dy="10">email_events_password</tspan><tspan x="5" dy="10">default_users_track_rate_limit &lt;Integer&gt;</tspan></text><line x1="0" y1="227.125" y2="227.125" x2="255.203125"></line><text x="5" y="242.125" fill="white" class="classText"><tspan x="5">email_sending_esp()</tspan><tspan x="5" dy="10">email_sending_esp=()</tspan><tspan x="5" dy="10">has_multiple_esps?()</tspan><tspan x="5" dy="10">get_time_zone()</tspan><tspan x="5" dy="10">email_enabled?()</tspan><tspan x="5" dy="10">get_data_point_policy_for_app()</tspan><tspan x="5" dy="10">data_point_policy_for_app_cache_key()</tspan><tspan x="5" dy="10">user_count()</tspan><tspan x="5" dy="10">email_account_password()</tspan><tspan x="5" dy="10">email_account_password=()</tspan><tspan x="5" dy="10">email_account_isolated?()</tspan><tspan x="5" dy="10">get_total_mau()</tspan><tspan x="5" dy="10">get_total_billable_users()</tspan><tspan x="5" dy="10">get_iana_time_zone()</tspan><tspan x="5" dy="10">track_action()</tspan><tspan x="5" dy="10">as_json()</tspan><tspan x="5" dy="10">has_sessions?()</tspan><tspan x="5" dy="10">churned_or_suspended?()</tspan><tspan x="5" dy="10">dev_emails()</tspan><tspan x="5" dy="10">billing_emails()</tspan><tspan x="5" dy="10">email_body_max_size_override()</tspan><tspan x="5" dy="10">email_footer_max_size_override()</tspan><tspan x="5" dy="10">company_settings()</tspan><tspan x="5" dy="10">app_api_keys()</tspan><tspan x="5" dy="10">rest_uptime_sla_api_keys()</tspan><tspan x="5" dy="10">update_sendgrid_timezone()</tspan><tspan x="5" dy="10">update_sendgrid_api_key()</tspan><tspan x="5" dy="10">company_cache_observer()</tspan><tspan x="5" dy="10">set_feature_flippers()</tspan><tspan x="5" dy="10">ensure_company_settings_and_set_feature_flippers()</tspan><tspan x="5" dy="10">ensure_first_app_group()</tspan><tspan x="5" dy="10">destroy_company_settings()</tspan><tspan x="5" dy="10">ensure_notification_preferences()</tspan></text></g><g id="classid-ApiAvailabilityState-1" class="classGroup " transform="translate(606.19140625,0 )"><rect x="0" y="0" width="155.3125" height="91.0625"></rect><text y="15" x="0"><tspan class="title" x="31.9140625">ApiAvailabilityState</tspan></text><line x1="0" y1="21.0625" y2="21.0625" x2="155.3125"></line><text x="5" y="31.0625" fill="white" class="classText"><tspan x="5">static AVAILABLE</tspan><tspan x="5" dy="10">static SDK_DOWN</tspan><tspan x="5" dy="10">static REST_DOWN</tspan><tspan x="5" dy="10">static ALL_API_DOWN</tspan><tspan x="5" dy="10">static AVAILABLE_STATES_SDK</tspan><tspan x="5" dy="10">static AVAILABLE_STATES_REST</tspan></text><line x1="0" y1="87.0625" y2="87.0625" x2="155.3125"></line><text x="5" y="102.0625" fill="white" class="classText"></text></g><g id="classid-ESP-2" class="classGroup " transform="translate(811.50390625,10.03125 )"><rect x="0" y="0" width="93.84375" height="71"></rect><text y="15" x="0"><tspan class="title" x="38.5859375">ESP</tspan></text><line x1="0" y1="21" y2="21" x2="93.84375"></line><text x="5" y="31" fill="white" class="classText"><tspan x="5">static SENDGRID</tspan><tspan x="5" dy="10">static MAILJET</tspan><tspan x="5" dy="10">static SPARKPOST</tspan><tspan x="5" dy="10">static NAMES</tspan></text><line x1="0" y1="67" y2="67" x2="93.84375"></line><text x="5" y="82" fill="white" class="classText"></text></g><g id="classid-SMSProvider-3" class="classGroup " transform="translate(955.34765625,25.03125 )"><rect x="0" y="0" width="74.75" height="41"></rect><text y="15" x="0"><tspan class="title" x="8.59375">SMSProvider</tspan></text><line x1="0" y1="21" y2="21" x2="74.75"></line><text x="5" y="31" fill="white" class="classText"><tspan x="5">static TWILIO</tspan></text><line x1="0" y1="37" y2="37" x2="74.75"></line><text x="5" y="52" fill="white" class="classText"></text></g><g id="classid-AccountStatuses-4" class="classGroup " transform="translate(1080.09765625,15.03125 )"><rect x="0" y="0" width="94.09375" height="61"></rect><text y="15" x="0"><tspan class="title" x="8.7265625">AccountStatuses</tspan></text><line x1="0" y1="21" y2="21" x2="94.09375"></line><text x="5" y="31" fill="white" class="classText"><tspan x="5">static SUSPENDED</tspan><tspan x="5" dy="10">static ACTIVE</tspan><tspan x="5" dy="10">static CHURNED</tspan></text><line x1="0" y1="57" y2="57" x2="94.09375"></line><text x="5" y="72" fill="white" class="classText"></text></g><g id="classid-DataPointPolicy-5" class="classGroup " transform="translate(1224.19140625,0 )"><rect x="0" y="0" width="127.953125" height="91.0625"></rect><text y="15" x="0"><tspan class="title" x="27.3046875">DataPointPolicy</tspan></text><line x1="0" y1="21.0625" y2="21.0625" x2="127.953125"></line><text x="5" y="31.0625" fill="white" class="classText"><tspan x="5">static LEGACY</tspan><tspan x="5" dy="10">static STANDARD_V1</tspan><tspan x="5" dy="10">static EXCLUDE_PROFILE</tspan><tspan x="5" dy="10">static STANDARD_V2</tspan><tspan x="5" dy="10">static EXCLUDED_EVENTS</tspan><tspan x="5" dy="10">static READABLE_INFO</tspan></text><line x1="0" y1="87.0625" y2="87.0625" x2="127.953125"></line><text x="5" y="102.0625" fill="white" class="classText"></text></g><g id="classid-EspAccountBase-6" class="classGroup " transform="translate(648.97265625,759.28125 )"><rect x="0" y="0" width="242.1875" height="288.21875"></rect><text y="15" x="0"><tspan class="title" x="83.515625">EspAccountBase</tspan></text><line x1="0" y1="21.0625" y2="21.0625" x2="242.1875"></line><text x="5" y="31.0625" fill="white" class="classText"><tspan x="5">static REMOTE_CACHE_EXPIRES_IN_SECONDS</tspan><tspan x="5" dy="10">static LOCAL_CACHE_EXPIRES_IN_SECONDS</tspan><tspan x="5" dy="10">static SUBUSER_NAME_REGEX</tspan><tspan x="5" dy="10">static SUBUSER_NAME_MAX_LENGTH</tspan><tspan x="5" dy="10">contact_email &lt;String&gt;</tspan><tspan x="5" dy="10">ep</tspan><tspan x="5" dy="10">sgk</tspan><tspan x="5" dy="10">self_reported_app_name &lt;String&gt;</tspan><tspan x="5" dy="10">email_campaign_summaries &lt;Boolean&gt;</tspan><tspan x="5" dy="10">name &lt;String&gt;</tspan><tspan x="5" dy="10">phone &lt;String&gt;</tspan><tspan x="5" dy="10">availability_state &lt;Integer&gt;</tspan><tspan x="5" dy="10">hipaa_compliant &lt;Boolean&gt;</tspan><tspan x="5" dy="10">is_demo_company &lt;Boolean&gt;</tspan></text><line x1="0" y1="167.125" y2="167.125" x2="242.1875"></line><text x="5" y="182.125" fill="white" class="classText"><tspan x="5">esp()</tspan><tspan x="5" dy="10">api_client()</tspan><tspan x="5" dy="10">matches_document?()</tspan><tspan x="5" dy="10">credentials()</tspan><tspan x="5" dy="10">find_or_create_default()</tspan><tspan x="5" dy="10">new_esp_account()</tspan><tspan x="5" dy="10">sending_account_from_company_and_app_group()</tspan><tspan x="5" dy="10">get_with_cache_attempt()</tspan><tspan x="5" dy="10">cache_key()</tspan><tspan x="5" dy="10">expire_cache()</tspan><tspan x="5" dy="10">validate_alias()</tspan></text></g><g id="classid-Domain-7" class="classGroup " transform="translate(720.82421875,1097.5 )"><rect x="0" y="0" width="266.96875" height="368.15625"></rect><text y="15" x="0"><tspan class="title" x="116.03125">Domain</tspan></text><line x1="0" y1="21" y2="21" x2="266.96875"></line><text x="5" y="31" fill="white" class="classText"><tspan x="5">static REMOTE_CACHE_EXPIRES_IN_SECONDS</tspan><tspan x="5" dy="10">static LOCAL_CACHE_EXPIRES_IN_SECONDS</tspan><tspan x="5" dy="10">static IP_POOL_NAME_REGEX</tspan><tspan x="5" dy="10">static IP_POOL_NAME_MAX_LENGTH</tspan><tspan x="5" dy="10">static DOMAIN_FROM_EMAIL_REGEX</tspan><tspan x="5" dy="10">contact_email &lt;String&gt;</tspan><tspan x="5" dy="10">ep</tspan><tspan x="5" dy="10">sgk</tspan><tspan x="5" dy="10">self_reported_app_name &lt;String&gt;</tspan><tspan x="5" dy="10">email_campaign_summaries &lt;Boolean&gt;</tspan><tspan x="5" dy="10">desc &lt;String&gt;</tspan><tspan x="5" dy="10">locale &lt;String&gt;</tspan><tspan x="5" dy="10">time_zone &lt;String&gt;</tspan><tspan x="5" dy="10">ee &lt;Boolean&gt;</tspan><tspan x="5" dy="10">braze_support_portal_user_allotment &lt;Integer&gt;</tspan><tspan x="5" dy="10">esp &lt;Integer&gt;</tspan></text><line x1="0" y1="187.0625" y2="187.0625" x2="266.96875"></line><text x="5" y="202.0625" fill="white" class="classText"><tspan x="5">ip_pool_dashboard_display_name()</tspan><tspan x="5" dy="10">find_or_create_default()</tspan><tspan x="5" dy="10">get_from_email_address()</tspan><tspan x="5" dy="10">get_with_cache_attempt()</tspan><tspan x="5" dy="10">get_with_string_based_cache_attempt()</tspan><tspan x="5" dy="10">valid_domain_name?()</tspan><tspan x="5" dy="10">generate_domain_deletable_campaign_query()</tspan><tspan x="5" dy="10">generate_domain_deletable_app_group_setting_query()</tspan><tspan x="5" dy="10">split_domain_for_sendgrid()</tspan><tspan x="5" dy="10">is_deletable?()</tspan><tspan x="5" dy="10">validate_domain()</tspan><tspan x="5" dy="10">validate_ip_pool_information()</tspan><tspan x="5" dy="10">make_sure_esp_account_is_in_company()</tspan><tspan x="5" dy="10">cache_key()</tspan><tspan x="5" dy="10">expire_cache()</tspan><tspan x="5" dy="10">string_based_cache_key()</tspan><tspan x="5" dy="10">expire_string_based_cache()</tspan></text></g><g id="classid-Account-8" class="classGroup " transform="translate(1305.4609375,1952.09375 )"><rect x="0" y="0" width="166.40625" height="71.0625"></rect><text y="15" x="0"><tspan class="title" x="64.1953125">Account</tspan></text><line x1="0" y1="21" y2="21" x2="166.40625"></line><text x="5" y="31" fill="white" class="classText"><tspan x="5">contact_email &lt;String&gt;</tspan><tspan x="5" dy="10">ep</tspan><tspan x="5" dy="10">sgk</tspan><tspan x="5" dy="10">self_reported_app_name &lt;String&gt;</tspan></text><line x1="0" y1="67.0625" y2="67.0625" x2="166.40625"></line><text x="5" y="82.0625" fill="white" class="classText"></text></g><g id="classid-MessagingService-9" class="classGroup " transform="translate(417.90234375,1515.65625 )"><rect x="0" y="0" width="232.921875" height="198.21875"></rect><text y="15" x="0"><tspan class="title" x="76.296875">MessagingService</tspan></text><line x1="0" y1="21.0625" y2="21.0625" x2="232.921875"></line><text x="5" y="31.0625" fill="white" class="classText"><tspan x="5">static SUBSCRIPTION_GROUP_NAME_SUFFIX</tspan><tspan x="5" dy="10">static SUBSCRIPTION_GROUP_MMS_NAME_SUFFIX</tspan><tspan x="5" dy="10">contact_email &lt;String&gt;</tspan><tspan x="5" dy="10">ep</tspan><tspan x="5" dy="10">sgk</tspan><tspan x="5" dy="10">self_reported_app_name &lt;String&gt;</tspan><tspan x="5" dy="10">email_campaign_summaries &lt;Boolean&gt;</tspan></text><line x1="0" y1="97.125" y2="97.125" x2="232.921875"></line><text x="5" y="112.125" fill="white" class="classText"><tspan x="5">get_with_cache_attempt()</tspan><tspan x="5" dy="10">cache_key()</tspan><tspan x="5" dy="10">mms_enabled?()</tspan><tspan x="5" dy="10">as_json()</tspan><tspan x="5" dy="10">subscription_group_name()</tspan><tspan x="5" dy="10">subscription_group_description()</tspan><tspan x="5" dy="10">create_subscription_group()</tspan><tspan x="5" dy="10">expire_cache()</tspan><tspan x="5" dy="10">validate_app_group_association()</tspan></text></g><g id="classid-Template-10" class="classGroup " transform="translate(1215.41015625,1763.875 )"><rect x="0" y="0" width="196.875" height="138.21875"></rect><text y="15" x="0"><tspan class="title" x="76.296875">Template</tspan></text><line x1="0" y1="21.0625" y2="21.0625" x2="196.875"></line><text x="5" y="31.0625" fill="white" class="classText"><tspan x="5">static CONTENT_BLOCK_INCLUDER_TYPE</tspan><tspan x="5" dy="10">static TITLE</tspan><tspan x="5" dy="10">contact_email &lt;String&gt;</tspan><tspan x="5" dy="10">ep</tspan><tspan x="5" dy="10">sgk</tspan><tspan x="5" dy="10">self_reported_app_name &lt;String&gt;</tspan></text><line x1="0" y1="87.125" y2="87.125" x2="196.875"></line><text x="5" y="102.125" fill="white" class="classText"><tspan x="5">liquid_templatable_field_keys()</tspan><tspan x="5" dy="10">get_company()</tspan><tspan x="5" dy="10">as_json()</tspan><tspan x="5" dy="10">attached_images_as_json()</tspan></text></g><g id="classid-CompanyArchiveRecord-11" class="classGroup " transform="translate(0,1817.953125 )"><rect x="0" y="0" width="121.140625" height="30.0625"></rect><text y="15" x="0"><tspan class="title" x="5">CompanyArchiveRecord</tspan></text><line x1="0" y1="21.0625" y2="21.0625" x2="121.140625"></line><text x="5" y="31.0625" fill="white" class="classText"></text><line x1="0" y1="26.0625" y2="26.0625" x2="121.140625"></line><text x="5" y="41.0625" fill="white" class="classText"></text></g><g id="classid-AnalyticsEvent-12" class="classGroup " transform="translate(229.08984375,1266.546875 )"><rect x="0" y="0" width="78.8125" height="30.0625"></rect><text y="15" x="0"><tspan class="title" x="5">AnalyticsEvent</tspan></text><line x1="0" y1="21.0625" y2="21.0625" x2="78.8125"></line><text x="5" y="31.0625" fill="white" class="classText"></text><line x1="0" y1="26.0625" y2="26.0625" x2="78.8125"></line><text x="5" y="41.0625" fill="white" class="classText"></text></g><g id="classid-apps-13" class="classGroup " transform="translate(242.84765625,1817.953125 )"><rect x="0" y="0" width="31.296875" height="30.0625"></rect><text y="15" x="0"><tspan class="title" x="5">apps</tspan></text><line x1="0" y1="21.0625" y2="21.0625" x2="31.296875"></line><text x="5" y="31.0625" fill="white" class="classText"></text><line x1="0" y1="26.0625" y2="26.0625" x2="31.296875"></line><text x="5" y="41.0625" fill="white" class="classText"></text></g><g id="classid-itunes_company-14" class="classGroup " transform="translate(454.46875,1817.953125 )"><rect x="0" y="0" width="86.4375" height="30.0625"></rect><text y="15" x="0"><tspan class="title" x="5">itunes_company</tspan></text><line x1="0" y1="21.0625" y2="21.0625" x2="86.4375"></line><text x="5" y="31.0625" fill="white" class="classText"></text><line x1="0" y1="26.0625" y2="26.0625" x2="86.4375"></line><text x="5" y="41.0625" fill="white" class="classText"></text></g><g id="classid-developers-15" class="classGroup " transform="translate(1084.06640625,1817.953125 )"><rect x="0" y="0" width="61.34375" height="30.0625"></rect><text y="15" x="0"><tspan class="title" x="5">developers</tspan></text><line x1="0" y1="21.0625" y2="21.0625" x2="61.34375"></line><text x="5" y="31.0625" fill="white" class="classText"></text><line x1="0" y1="26.0625" y2="26.0625" x2="61.34375"></line><text x="5" y="41.0625" fill="white" class="classText"></text></g><g id="classid-notification_preferences-16" class="classGroup " transform="translate(12.69921875,1599.734375 )"><rect x="0" y="0" width="126.390625" height="30.0625"></rect><text y="15" x="0"><tspan class="title" x="5">notification_preferences</tspan></text><line x1="0" y1="21.0625" y2="21.0625" x2="126.390625"></line><text x="5" y="31.0625" fill="white" class="classText"></text><line x1="0" y1="26.0625" y2="26.0625" x2="126.390625"></line><text x="5" y="41.0625" fill="white" class="classText"></text></g><path d="M683.84765625,91.0625L683.84765625,95.22916666666667C683.84765625,99.39583333333333,683.84765625,107.72916666666667,724.0716145833334,145.59622794247397C764.2955729166666,183.46328921828126,844.7434895833334,250.86407843656255,884.9674479166666,284.5644730457032L925.19140625,318.26486765484384" id="edge0" class="relation dashed-line" marker-start="url(#dependencyStart)"></path><path d="M858.42578125,81.03125L858.42578125,86.86979166666667C858.42578125,92.70833333333333,858.42578125,104.38541666666667,869.5533854166666,127.92060154481021C880.6809895833334,151.45578642295376,902.9361979166666,186.8490728459075,914.0638020833334,204.54571605738442L925.19140625,222.2423592688613" id="edge1" class="relation dashed-line" marker-start="url(#dependencyStart)"></path><path d="M992.72265625,66.03125L992.72265625,74.36979166666667C992.72265625,82.70833333333333,992.72265625,99.38541666666667,993.5323792444902,111.890625C994.3421022389804,124.39583333333333,995.9615482279609,132.72916666666666,996.7712712224511,136.89583333333334L997.5809942169413,141.0625" id="edge2" class="relation dashed-line" marker-start="url(#dependencyStart)"></path><path d="M1127.14453125,76.03125L1127.14453125,82.703125C1127.14453125,89.375,1127.14453125,102.71875,1126.1423029057987,113.55729166666667C1125.1400745615974,124.39583333333333,1123.135617873195,132.72916666666666,1122.1333895289938,136.89583333333334L1121.1311611847925,141.0625" id="edge3" class="relation dashed-line" marker-start="url(#dependencyStart)"></path><path d="M1288.16796875,91.0625L1288.16796875,95.22916666666667C1288.16796875,99.39583333333333,1288.16796875,107.72916666666667,1270.2057291666667,135.4849853299533C1252.2434895833333,163.24080399323995,1216.3190104166667,210.41910798647987,1198.3567708333333,234.00825998309983L1180.39453125,257.5974119797198" id="edge4" class="relation dashed-line" marker-start="url(#dependencyStart)"></path><path d="M925.19140625,564.6806600417253L899.3372395833334,592.9474250347711C873.4830729166666,621.2141900278169,821.7747395833334,677.7477200139084,795.9205729166666,710.181151673621C770.06640625,742.6145833333334,770.06640625,750.9479166666666,770.06640625,755.1145833333334L770.06640625,759.28125" id="edge5" class="relation" marker-end="url(#dependencyEnd)"></path><g class="classLabel"><rect class="box" x="814.703125" y="647.203125" width="48.984375" height="16.0625"></rect><text class="label" x="839.1924665621932" y="658.7046465483369" fill="red" text-anchor="middle">has_many</text></g><path d="M841.8547916618544,1047.5L843.9304253432119,1051.6666666666667C846.0060590245697,1055.8333333333333,850.1573263872848,1064.1666666666667,852.2329600686425,1072.5C854.30859375,1080.8333333333333,854.30859375,1089.1666666666667,854.30859375,1093.3333333333333L854.30859375,1097.5" id="edge6" class="relation" marker-end="url(#dependencyEnd)"></path><g class="classLabel"><rect class="box" x="829.171875" y="1059.6875" width="48.96875" height="16.0625"></rect><text class="label" x="853.6553160565835" y="1071.1885978900405" fill="red" text-anchor="middle">has_many</text></g><path d="M987.79296875,1124.8894848716332L991.6818576388888,1120.3245707263611C995.5707465277778,1115.7596565810888,1003.3485243055557,1106.6298282905443,1008.2096354166669,1102.0649141452723C1013.0707465277778,1097.5,1015.0151909722222,1097.5,1016.9596354166666,1128.1796875C1018.904079861111,1158.859375,1020.8485243055555,1220.21875,1020.8485243055557,1281.578125C1020.8485243055555,1342.9375,1018.904079861111,1404.296875,1016.9596354166665,1434.9765625C1015.0151909722222,1465.65625,1013.0707465277778,1465.65625,1008.2096354166666,1461.0913358547277C1003.3485243055557,1456.5264217094555,995.5707465277778,1447.3965934189112,991.6818576388888,1442.8316792736389L987.79296875,1438.2667651283668" id="edge7" class="relation" marker-end="url(#dependencyEnd)"></path><g class="classLabel"><rect class="box" x="998.3125" y="1270.078125" width="48.96875" height="16.0625"></rect><text class="label" x="1022.79296875" y="1281.578125" fill="red" text-anchor="middle">has_many</text></g><path d="M720.82421875,1312.960552919776L594.853515625,1342.5765024331467C468.8828125,1372.1924519465174,216.94140625,1431.4243509732587,90.970703125,1481.7251963199626C-35,1532.0260416666667,-35,1573.3958333333333,-35,1614.765625C-35,1656.1354166666667,-35,1697.5052083333333,-35,1733.875C-35,1770.2447916666667,-35,1801.6145833333333,-35,1832.984375C-35,1864.3541666666667,-35,1895.7239583333333,188.41015625,1920.907791715712C411.8203125,1946.0916250980908,858.640625,1965.0895001961817,1082.05078125,1974.5884377452269L1305.4609375,1984.0873752942725" id="edge8" class="relation" marker-end="url(#dependencyEnd)"></path><g class="classLabel"><rect class="box" x="4.859375" y="1918.328125" width="48.96875" height="16.0625"></rect><text class="label" x="29.343331243298692" y="1929.829495301094" fill="red" text-anchor="middle">has_many</text></g><path d="M1471.8671875,1955.8739318344128L1484.4368489583333,1951.0772348620105C1497.0065104166667,1946.2805378896085,1522.1458333333333,1936.6871439448041,1534.7154947916667,1916.2055511390688C1547.28515625,1895.7239583333333,1547.28515625,1864.3541666666667,1547.28515625,1832.984375C1547.28515625,1801.6145833333333,1547.28515625,1770.2447916666667,1547.28515625,1733.875C1547.28515625,1697.5052083333333,1547.28515625,1656.1354166666667,1547.28515625,1614.765625C1547.28515625,1573.3958333333333,1547.28515625,1532.0260416666667,1454.0364583333333,1483.2070588033582C1360.7877604166667,1434.3880759400497,1174.2903645833333,1378.1199018800992,1081.0416666666667,1349.985814850124L987.79296875,1321.8517278201487" id="edge9" class="relation" marker-end="url(#dependencyEnd)"></path><g class="classLabel"><rect class="box" x="1490.609375" y="1469.4375" width="48.96875" height="16.0625"></rect><text class="label" x="1515.0970901792828" y="1480.9447808600294" fill="red" text-anchor="middle">has_many</text></g><path d="M1471.8671875,1959.87571040088L1475.756076388889,1958.5787170007334C1479.6449652777776,1957.2817236005867,1487.4227430555554,1954.6877368002934,1492.2838541666667,1953.3907434001467C1497.1449652777776,1952.09375,1499.0894097222224,1952.09375,1501.0338541666667,1958.015625C1502.9782986111113,1963.9375,1504.9227430555557,1975.78125,1504.9227430555557,1987.625C1504.9227430555557,1999.46875,1502.9782986111113,2011.3125,1501.0338541666667,2017.234375C1499.0894097222224,2023.15625,1497.1449652777776,2023.15625,1492.2838541666667,2021.8592565998533C1487.4227430555554,2020.5622631997066,1479.6449652777776,2017.9682763994133,1475.7560763888887,2016.6712829992666L1471.8671875,2015.37428959912" id="edge10" class="relation" marker-end="url(#dependencyEnd)"></path><g class="classLabel"><rect class="box" x="1482.375" y="1976.125" width="48.984375" height="16.0625"></rect><text class="label" x="1506.8671875" y="1987.625" fill="red" text-anchor="middle">has_many</text></g><path d="M720.82421875,1353.9411412914121L678.7923177083334,1376.7269927428435C636.7604166666666,1399.512844194275,552.6966145833334,1445.0845470971374,512.871452179461,1472.0370652152353C473.04628977558855,1498.9895833333333,477.4597670511771,1507.3229166666667,479.6665056889714,1511.4895833333333L481.8732443267657,1515.65625" id="edge11" class="relation" marker-end="url(#dependencyEnd)"></path><g class="classLabel"><rect class="box" x="557.8125" y="1417.53125" width="48.96875" height="16.0625"></rect><text class="label" x="582.2933495787856" y="1429.03990504335" fill="red" text-anchor="middle">has_many</text></g><path d="M586.8533181732342,1515.65625L589.0600568110285,1511.4895833333333C591.2667954488228,1507.3229166666667,595.6802727244113,1498.9895833333333,618.0087561538724,1478.2738567820777C640.3372395833334,1457.558130230822,680.5807291666666,1424.4600104616438,700.7024739583334,1407.910950577055L720.82421875,1391.361890692466" id="edge12" class="relation" marker-end="url(#dependencyEnd)"></path><g class="classLabel"><rect class="box" x="625.046875" y="1438.484375" width="48.96875" height="16.0625"></rect><text class="label" x="649.5343311328078" y="1449.99401387848" fill="red" text-anchor="middle">has_many</text></g><path d="M650.82421875,1637.1384507567054L739.0885416666666,1654.0945422972545C827.3528645833334,1671.0506338378036,1003.8815104166666,1704.9628169189018,1092.1458333333333,1737.6038042927842C1180.41015625,1770.2447916666667,1180.41015625,1801.6145833333333,1180.41015625,1832.984375C1180.41015625,1864.3541666666667,1180.41015625,1895.7239583333333,1201.251953125,1917.4667478206536C1222.09375,1939.2095373079737,1263.77734375,1951.3253246159475,1284.619140625,1957.3832182699343L1305.4609375,1963.441111923921" id="edge13" class="relation" marker-end="url(#dependencyEnd)"></path><g class="classLabel"><rect class="box" x="1047.5" y="1706.53125" width="48.96875" height="16.078125"></rect><text class="label" x="1071.98046966924" y="1718.0450244150488" fill="red" text-anchor="middle">has_many</text></g><path d="M417.90234375,1649.9603451811956L368.865234375,1664.779454317663C319.828125,1679.5985634541303,221.75390625,1709.2367817270651,192.578125,1737.9202062573697C163.40234375,1766.603630787674,203.125,1794.3322615753484,222.986328125,1808.1965769691853L242.84765625,1822.0608923630227" id="edge14" class="relation" marker-end="url(#dependencyEnd)"></path><g class="classLabel"><rect class="box" x="176.75" y="1703.9375" width="48.96875" height="16.0625"></rect><text class="label" x="201.2327193607116" y="1715.4383240283585" fill="red" text-anchor="middle">has_many</text></g><path d="M417.90234375,1699.0640919032214L408.7356770833333,1705.6992432526847C399.5690104166667,1712.3343946021475,381.2356770833333,1725.6046973010737,390.94519824613286,1745.419536150537C400.6547194089324,1765.234375,438.4070950678649,1791.59375,457.28328289733105,1804.7734375L476.1594707267973,1817.953125" id="edge15" class="relation" marker-end="url(#dependencyEnd)"></path><g class="classLabel"><rect class="box" x="364.96875" y="1747.46875" width="53.453125" height="16.0625"></rect><text class="label" x="391.69620921565524" y="1758.9793850687893" fill="red" text-anchor="middle">belongs_to</text></g><path d="M650.82421875,1635.3327865839763L748.5416666666666,1652.5898221533134C846.2591145833334,1669.846857722651,1041.6940104166667,1704.3609288613254,1142.8081598663457,1725.7846310973293C1243.9223093160247,1747.2083333333333,1250.7157123820493,1755.5416666666667,1254.1124139150618,1759.7083333333333L1257.509115448074,1763.875" id="edge16" class="relation" marker-end="url(#dependencyEnd)"></path><g class="classLabel"><rect class="box" x="935.375" y="1678.40625" width="48.96875" height="16.0625"></rect><text class="label" x="959.8580587449076" y="1689.9085873505803" fill="red" text-anchor="middle">has_many</text></g><path d="M1355.4991640119126,1763.875L1358.010371051594,1759.7083333333333C1360.5215780912752,1755.5416666666667,1365.5439921706375,1747.2083333333333,1368.0551992103185,1722.3567708333333C1370.56640625,1697.5052083333333,1370.56640625,1656.1354166666667,1370.56640625,1614.765625C1370.56640625,1573.3958333333333,1370.56640625,1532.0260416666667,1306.7708333333333,1485.504715960967C1242.9752604166667,1438.9833902552675,1115.3841145833333,1387.3105305105353,1051.5885416666667,1361.474100638169L987.79296875,1335.6376707658026" id="edge17" class="relation" marker-end="url(#dependencyEnd)"></path><g class="classLabel"><rect class="box" x="1283.25" y="1453.703125" width="48.984375" height="16.0625"></rect><text class="label" x="1307.7408901495198" y="1465.2126813209388" fill="red" text-anchor="middle">has_many</text></g><path d="M1313.84765625,1902.09375L1313.84765625,1906.2604166666667C1313.84765625,1910.4270833333333,1313.84765625,1918.7604166666667,1318.9976411923508,1927.09375C1324.1476261347013,1935.4270833333333,1334.447596019403,1943.7604166666667,1339.5975809617537,1947.9270833333333L1344.7475659041042,1952.09375" id="edge18" class="relation" marker-end="url(#dependencyEnd)"></path><g class="classLabel"><rect class="box" x="1295.09375" y="1920.21875" width="48.96875" height="16.078125"></rect><text class="label" x="1319.579864687303" y="1931.731472651514" fill="red" text-anchor="middle">has_many</text></g><path d="M417.90234375,1645.2723971945568L358.3470052083333,1660.872830995464C298.7916666666667,1676.4732647963713,179.68098958333334,1707.6741323981857,120.12565104166667,1736.4542536990928C60.5703125,1765.234375,60.5703125,1791.59375,60.5703125,1804.7734375L60.5703125,1817.953125" id="edge19" class="relation" marker-end="url(#dependencyEnd)"></path><g class="classLabel"><rect class="box" x="180.328125" y="1690.578125" width="41.3125" height="16.015625"></rect><text class="label" x="200.987747723578" y="1702.0928582753581" fill="red" text-anchor="middle">has_one</text></g><path d="M650.82421875,1642.118165000961L719.4856770833334,1658.2443041674676C788.1471354166666,1674.3704433339742,925.4700520833334,1706.622721666987,1001.4062690242957,1735.9285483334934C1077.342485965258,1765.234375,1091.8920031805162,1791.59375,1099.1667617881453,1804.7734375L1106.4415203957744,1817.953125" id="edge20" class="relation" marker-end="url(#dependencyEnd)"></path><g class="classLabel"><rect class="box" x="876.28125" y="1689.3125" width="48.984375" height="16.0625"></rect><text class="label" x="900.7745933080575" y="1700.8226350586096" fill="red" text-anchor="middle">has_many</text></g><path d="M720.82421875,1322.6070775859098L629.7018229166666,1350.615272988258C538.5794270833334,1378.6234683906066,356.3346354166667,1434.6398591953032,265.2122395833333,1483.332950430985C174.08984375,1532.0260416666667,174.08984375,1573.3958333333333,174.08984375,1614.765625C174.08984375,1656.1354166666667,174.08984375,1697.5052083333333,185.91064266665285,1731.3697916666667C197.73144158330567,1765.234375,221.3730394166113,1791.59375,233.19383833326415,1804.7734375L245.01463724991697,1817.953125" id="edge21" class="relation" marker-end="url(#dependencyEnd)"></path><g class="classLabel"><rect class="box" x="253.5625" y="1447.1875" width="48.984375" height="16.078125"></rect><text class="label" x="278.05686148086113" y="1458.7000166132989" fill="red" text-anchor="middle">has_many</text></g><path d="M720.82421875,1340.781122079052L664.50390625,1365.7603100658769C608.18359375,1390.7394980527013,495.54296875,1440.6978740263505,439.22265625,1486.3619578465086C382.90234375,1532.0260416666667,382.90234375,1573.3958333333333,382.90234375,1614.765625C382.90234375,1656.1354166666667,382.90234375,1697.5052083333333,398.9776018102482,1731.3697916666667C415.05285987049643,1765.234375,447.2033759909929,1791.59375,463.2786340512411,1804.7734375L479.3538921114893,1817.953125" id="edge22" class="relation" marker-end="url(#dependencyEnd)"></path><g class="classLabel"><rect class="box" x="356.171875" y="1480.78125" width="53.46875" height="16.078125"></rect><text class="label" x="382.90234375" y="1492.2944371562028" fill="red" text-anchor="middle">belongs_to</text></g><path d="M987.79296875,1350.861281722135L1032.6822916666667,1374.1604431017793C1077.5716145833333,1397.4596044814232,1167.3502604166667,1444.0579272407115,1212.2395833333333,1488.041984453689C1257.12890625,1532.0260416666667,1257.12890625,1573.3958333333333,1257.12890625,1614.765625C1257.12890625,1656.1354166666667,1257.12890625,1697.5052083333333,1259.6401132896813,1722.3567708333333C1262.1513203293625,1747.2083333333333,1267.1737344087248,1755.5416666666667,1269.684941448406,1759.7083333333333L1272.1961484880874,1763.875" id="edge23" class="relation" marker-end="url(#dependencyEnd)"></path><g class="classLabel"><rect class="box" x="1221.078125" y="1473.15625" width="48.984375" height="16.0625"></rect><text class="label" x="1245.570085001991" y="1484.6568090613212" fill="red" text-anchor="middle">has_many</text></g><path d="M987.79296875,1328.6434975741427L1064.375,1355.6456229784524C1140.95703125,1382.6477483827618,1294.12109375,1436.651999191381,1370.703125,1484.3390204290238C1447.28515625,1532.0260416666667,1447.28515625,1573.3958333333333,1447.28515625,1614.765625C1447.28515625,1656.1354166666667,1447.28515625,1697.5052083333333,1447.28515625,1733.875C1447.28515625,1770.2447916666667,1447.28515625,1801.6145833333333,1447.28515625,1832.984375C1447.28515625,1864.3541666666667,1447.28515625,1895.7239583333333,1443.2499751279902,1915.5755208333333C1439.2147940059801,1935.4270833333333,1431.14443176196,1943.7604166666667,1427.1092506399502,1947.9270833333333L1423.0740695179402,1952.09375" id="edge24" class="relation" marker-end="url(#dependencyEnd)"></path><g class="classLabel"><rect class="box" x="1413.015625" y="1476.484375" width="53.46875" height="16.078125"></rect><text class="label" x="1439.7506116595343" y="1487.9996383304563" fill="red" text-anchor="middle">belongs_to</text></g><path d="M987.79296875,1380.1028324783497L1012.7565104166666,1398.5284020652914C1037.7200520833333,1416.9539716522331,1087.6471354166667,1453.8051108261163,1112.6106770833333,1492.9155762463915C1137.57421875,1532.0260416666667,1137.57421875,1573.3958333333333,1137.57421875,1614.765625C1137.57421875,1656.1354166666667,1137.57421875,1697.5052083333333,1134.3761258924123,1731.3697916666667C1131.178033034825,1765.234375,1124.7818473196496,1791.59375,1121.583754462062,1804.7734375L1118.3856616044745,1817.953125" id="edge25" class="relation" marker-end="url(#dependencyEnd)"></path><g class="classLabel"><rect class="box" x="1113.09375" y="1550.859375" width="48.96875" height="16.0625"></rect><text class="label" x="1137.57421875" y="1562.37082415944" fill="red" text-anchor="middle">has_many</text></g><path d="M720.82421875,1317.4313606830294L613.3359375,1346.3021755691911C505.84765625,1375.1729904553529,290.87109375,1432.9146202276763,183.3828125,1479.9651226138383C75.89453125,1527.015625,75.89453125,1563.375,75.89453125,1581.5546875L75.89453125,1599.734375" id="edge26" class="relation" marker-end="url(#dependencyEnd)"></path><g class="classLabel"><rect class="box" x="321.203125" y="1406.6875" width="48.96875" height="16.0625"></rect><text class="label" x="345.68719957016094" y="1418.1912882931626" fill="red" text-anchor="middle">has_many</text></g><path d="M891.16015625,932.7617346824436L987.1809895833334,956.051445568703C1083.2018229166667,979.3411564549624,1275.2434895833333,1025.9205782274812,1371.2643229166667,1084.0566432804073C1467.28515625,1142.1927083333333,1467.28515625,1211.8854166666667,1467.28515625,1281.578125C1467.28515625,1351.2708333333333,1467.28515625,1420.9635416666667,1467.28515625,1476.4947916666667C1467.28515625,1532.0260416666667,1467.28515625,1573.3958333333333,1467.28515625,1614.765625C1467.28515625,1656.1354166666667,1467.28515625,1697.5052083333333,1467.28515625,1733.875C1467.28515625,1770.2447916666667,1467.28515625,1801.6145833333333,1467.28515625,1832.984375C1467.28515625,1864.3541666666667,1467.28515625,1895.7239583333333,1461.8732757647133,1915.5755208333333C1456.461395279427,1935.4270833333333,1445.637634308854,1943.7604166666667,1440.2257538235674,1947.9270833333333L1434.813873338281,1952.09375" id="edge27" class="relation" marker-end="url(#dependencyEnd)"></path><g class="classLabel"><rect class="box" x="1442.796875" y="1212.359375" width="48.96875" height="16.078125"></rect><text class="label" x="1467.28515625" y="1223.8722777209223" fill="red" text-anchor="middle">has_many</text></g><path d="M648.97265625,938.9443084520176L573.1588541666666,961.2035903766813C497.3450520833333,983.4628723013451,345.7174479166667,1027.9814361506726,269.9036458333333,1085.087072242003C194.08984375,1142.1927083333333,194.08984375,1211.8854166666667,194.08984375,1281.578125C194.08984375,1351.2708333333333,194.08984375,1420.9635416666667,194.08984375,1476.4947916666667C194.08984375,1532.0260416666667,194.08984375,1573.3958333333333,194.08984375,1614.765625C194.08984375,1656.1354166666667,194.08984375,1697.5052083333333,203.10971289743483,1731.3697916666667C212.12958204486964,1765.234375,230.16932033973933,1791.59375,239.18918948717416,1804.7734375L248.209058634609,1817.953125" id="edge28" class="relation" marker-end="url(#dependencyEnd)"></path><g class="classLabel"><rect class="box" x="169.609375" y="1205.046875" width="48.96875" height="16.0625"></rect><text class="label" x="194.08984375" y="1216.557576291249" fill="red" text-anchor="middle">has_many</text></g><path d="M698.2780208381456,1047.5L696.2023871567881,1051.6666666666667C694.1267534754303,1055.8333333333333,689.9754861127152,1064.1666666666667,687.8998524313575,1103.1796875C685.82421875,1142.1927083333333,685.82421875,1211.8854166666667,685.82421875,1281.578125C685.82421875,1351.2708333333333,685.82421875,1420.9635416666667,685.82421875,1476.4947916666667C685.82421875,1532.0260416666667,685.82421875,1573.3958333333333,685.82421875,1614.765625C685.82421875,1656.1354166666667,685.82421875,1697.5052083333333,659.4763319385065,1731.3697916666667C633.1284451270132,1765.234375,580.4326715040262,1791.59375,554.0847846925327,1804.7734375L527.7368978810393,1817.953125" id="edge29" class="relation" marker-end="url(#dependencyEnd)"></path><g class="classLabel"><rect class="box" x="659.09375" y="1468.59375" width="53.46875" height="16.0625"></rect><text class="label" x="685.82421875" y="1480.103596841086" fill="red" text-anchor="middle">belongs_to</text></g><path d="M891.16015625,943.7763533449402L955.48828125,965.2302944541167C1019.81640625,986.6842355632934,1148.47265625,1029.5921177816467,1212.80078125,1085.8924130574899C1277.12890625,1142.1927083333333,1277.12890625,1211.8854166666667,1277.12890625,1281.578125C1277.12890625,1351.2708333333333,1277.12890625,1420.9635416666667,1277.12890625,1476.4947916666667C1277.12890625,1532.0260416666667,1277.12890625,1573.3958333333333,1277.12890625,1614.765625C1277.12890625,1656.1354166666667,1277.12890625,1697.5052083333333,1278.75461879635,1722.3567708333333C1280.3803313427002,1747.2083333333333,1283.6317564354003,1755.5416666666667,1285.2574689817504,1759.7083333333333L1286.8831815281005,1763.875" id="edge30" class="relation" marker-end="url(#dependencyEnd)"></path><g class="classLabel"><rect class="box" x="1252.640625" y="1204.15625" width="48.96875" height="16.078125"></rect><text class="label" x="1277.12890625" y="1215.6712155438104" fill="red" text-anchor="middle">has_many</text></g><path d="M891.16015625,931.9427067448041L990.5143229166666,955.3689222873368C1089.8684895833333,978.7951378298694,1288.5768229166667,1025.6475689149347,1387.9309895833333,1083.920138624134C1487.28515625,1142.1927083333333,1487.28515625,1211.8854166666667,1487.28515625,1281.578125C1487.28515625,1351.2708333333333,1487.28515625,1420.9635416666667,1487.28515625,1476.4947916666667C1487.28515625,1532.0260416666667,1487.28515625,1573.3958333333333,1487.28515625,1614.765625C1487.28515625,1656.1354166666667,1487.28515625,1697.5052083333333,1487.28515625,1733.875C1487.28515625,1770.2447916666667,1487.28515625,1801.6145833333333,1487.28515625,1832.984375C1487.28515625,1864.3541666666667,1487.28515625,1895.7239583333333,1480.4965764014369,1915.5755208333333C1473.7079965528737,1935.4270833333333,1460.1308368557477,1943.7604166666667,1453.3422570071846,1947.9270833333333L1446.5536771586217,1952.09375" id="edge31" class="relation" marker-end="url(#dependencyEnd)"></path><g class="classLabel"><rect class="box" x="1460.546875" y="1205.953125" width="53.46875" height="16.0625"></rect><text class="label" x="1487.28515625" y="1217.4569983259712" fill="red" text-anchor="middle">belongs_to</text></g><path d="M648.97265625,942.1181535152845L581.0260416666666,963.848461262737C513.0794270833334,985.5787690101897,377.1861979166667,1029.0393845050949,313.4474852013427,1083.1108380858807C249.70877248601872,1137.1822916666667,258.12457622203743,1201.8645833333333,262.33247809004683,1234.2057291666667L266.5403799580562,1266.546875" id="edge32" class="relation" marker-end="url(#dependencyEnd)"></path><g class="classLabel"><rect class="box" x="327.453125" y="1025.609375" width="48.96875" height="16.0625"></rect><text class="label" x="351.9414483402209" y="1037.1130196768772" fill="red" text-anchor="middle">has_many</text></g><path d="M1180.39453125,511.956291362269L1234.8763020833333,549.0104511352241C1289.3580729166667,586.0646109081794,1398.3216145833333,660.1729304540896,1452.8033854166667,725.4119860603781C1507.28515625,790.6510416666666,1507.28515625,847.0208333333334,1507.28515625,903.390625C1507.28515625,959.7604166666666,1507.28515625,1016.1302083333334,1507.28515625,1079.1614583333333C1507.28515625,1142.1927083333333,1507.28515625,1211.8854166666667,1507.28515625,1281.578125C1507.28515625,1351.2708333333333,1507.28515625,1420.9635416666667,1507.28515625,1476.4947916666667C1507.28515625,1532.0260416666667,1507.28515625,1573.3958333333333,1507.28515625,1614.765625C1507.28515625,1656.1354166666667,1507.28515625,1697.5052083333333,1507.28515625,1733.875C1507.28515625,1770.2447916666667,1507.28515625,1801.6145833333333,1507.28515625,1832.984375C1507.28515625,1864.3541666666667,1507.28515625,1895.7239583333333,1499.1198770381604,1915.5755208333333C1490.9545978263207,1935.4270833333333,1474.6240394026415,1943.7604166666667,1466.4587601908022,1947.9270833333333L1458.2934809789624,1952.09375" id="edge33" class="relation" marker-end="url(#dependencyEnd)"></path><g class="classLabel"><rect class="box" x="1482.796875" y="1149.015625" width="48.96875" height="16.0625"></rect><text class="label" x="1507.28515625" y="1160.5233001286547" fill="red" text-anchor="middle">has_many</text></g><path d="M925.19140625,480.7337289594018L828.1432291666666,522.9916491328348C731.0950520833334,565.2495693062679,536.9986979166666,649.7654096531339,439.9505208333333,720.2082256599002C342.90234375,790.6510416666666,342.90234375,847.0208333333334,342.90234375,903.390625C342.90234375,959.7604166666666,342.90234375,1016.1302083333334,342.90234375,1079.1614583333333C342.90234375,1142.1927083333333,342.90234375,1211.8854166666667,342.90234375,1281.578125C342.90234375,1351.2708333333333,342.90234375,1420.9635416666667,342.90234375,1476.4947916666667C342.90234375,1532.0260416666667,342.90234375,1573.3958333333333,342.90234375,1614.765625C342.90234375,1656.1354166666667,342.90234375,1697.5052083333333,331.08154483334715,1731.3697916666667C319.26074591669436,1765.234375,295.61914808338867,1791.59375,283.7983491667358,1804.7734375L271.977550250083,1817.953125" id="edge34" class="relation" marker-end="url(#dependencyEnd)"></path><g class="classLabel"><rect class="box" x="318.421875" y="960.640625" width="48.96875" height="16.0625"></rect><text class="label" x="342.90234375" y="972.1424622021523" fill="red" text-anchor="middle">has_many</text></g><path d="M1043.6017439610398,709.28125L1043.4669480925331,713.4479166666666C1043.3321522240265,717.6145833333334,1043.0625604870131,725.9479166666666,1042.9277646185067,758.2994791666666C1042.79296875,790.6510416666666,1042.79296875,847.0208333333334,1042.79296875,903.390625C1042.79296875,959.7604166666666,1042.79296875,1016.1302083333334,1042.79296875,1079.1614583333333C1042.79296875,1142.1927083333333,1042.79296875,1211.8854166666667,1042.79296875,1281.578125C1042.79296875,1351.2708333333333,1042.79296875,1420.9635416666667,1042.79296875,1476.4947916666667C1042.79296875,1532.0260416666667,1042.79296875,1573.3958333333333,1042.79296875,1614.765625C1042.79296875,1656.1354166666667,1042.79296875,1697.5052083333333,959.1451822916666,1732.631421223674C875.4973958333334,1767.757634114014,708.2018229166666,1796.6402682280284,624.5540364583334,1811.0815852850355L540.90625,1825.5229023420425" id="edge35" class="relation" marker-end="url(#dependencyEnd)"></path><g class="classLabel"><rect class="box" x="1016.0625" y="1467.21875" width="53.46875" height="16.0625"></rect><text class="label" x="1042.79296875" y="1478.7273028487512" fill="red" text-anchor="middle">belongs_to</text></g><path d="M1180.39453125,565.5105385684503L1205.9700520833333,593.6389904737085C1231.5455729166667,621.7674423789668,1282.6966145833333,678.0243461894835,1308.2721354166667,734.337693928075C1333.84765625,790.6510416666666,1333.84765625,847.0208333333334,1333.84765625,903.390625C1333.84765625,959.7604166666666,1333.84765625,1016.1302083333334,1333.84765625,1079.1614583333333C1333.84765625,1142.1927083333333,1333.84765625,1211.8854166666667,1333.84765625,1281.578125C1333.84765625,1351.2708333333333,1333.84765625,1420.9635416666667,1333.84765625,1476.4947916666667C1333.84765625,1532.0260416666667,1333.84765625,1573.3958333333333,1333.84765625,1614.765625C1333.84765625,1656.1354166666667,1333.84765625,1697.5052083333333,1332.9621617566688,1722.3567708333333C1332.0766672633379,1747.2083333333333,1330.3056782766755,1755.5416666666667,1329.4201837833446,1759.7083333333333L1328.5346892900134,1763.875" id="edge36" class="relation" marker-end="url(#dependencyEnd)"></path><g class="classLabel"><rect class="box" x="1309.359375" y="1123.796875" width="48.96875" height="16.0625"></rect><text class="label" x="1333.84765625" y="1135.3053061358069" fill="red" text-anchor="middle">has_many</text></g><path d="M1180.39453125,508.2982999917675L1238.2096354166667,545.9621249931396C1296.0247395833333,583.6259499945116,1411.6549479166667,658.9535999972559,1469.4700520833333,724.8023208319613C1527.28515625,790.6510416666666,1527.28515625,847.0208333333334,1527.28515625,903.390625C1527.28515625,959.7604166666666,1527.28515625,1016.1302083333334,1527.28515625,1079.1614583333333C1527.28515625,1142.1927083333333,1527.28515625,1211.8854166666667,1527.28515625,1281.578125C1527.28515625,1351.2708333333333,1527.28515625,1420.9635416666667,1527.28515625,1476.4947916666667C1527.28515625,1532.0260416666667,1527.28515625,1573.3958333333333,1527.28515625,1614.765625C1527.28515625,1656.1354166666667,1527.28515625,1697.5052083333333,1527.28515625,1733.875C1527.28515625,1770.2447916666667,1527.28515625,1801.6145833333333,1527.28515625,1832.984375C1527.28515625,1864.3541666666667,1527.28515625,1895.7239583333333,1517.7431776748838,1915.5755208333333C1508.2011990997678,1935.4270833333333,1489.1172419495354,1943.7604166666667,1479.5752633744194,1947.9270833333333L1470.0332847993031,1952.09375" id="edge37" class="relation" marker-end="url(#dependencyEnd)"></path><g class="classLabel"><rect class="box" x="1500.546875" y="1143.40625" width="53.46875" height="16.078125"></rect><text class="label" x="1527.28515625" y="1154.9203435628842" fill="red" text-anchor="middle">belongs_to</text></g><path d="M925.19140625,476.1120770166986L817.4088541666666,519.1402725139155C709.6263020833334,562.1684680111324,494.0611979166667,648.2248590055661,386.2786458333333,719.4379503361164C278.49609375,790.6510416666666,278.49609375,847.0208333333334,278.49609375,903.390625C278.49609375,959.7604166666666,278.49609375,1016.1302083333334,276.94924872097874,1076.65625C275.4024036919575,1137.1822916666667,272.30871363391503,1201.8645833333333,270.7618686048938,1234.2057291666667L269.2150235758725,1266.546875" id="edge38" class="relation" marker-end="url(#dependencyEnd)"></path><g class="classLabel"><rect class="box" x="330.09375" y="692.40625" width="48.96875" height="16.0625"></rect><text class="label" x="354.5756101471391" y="703.9093183506285" fill="red" text-anchor="middle">has_many</text></g></svg>